<?xml version="1.0" standalone="no"?>
<!DOCTYPE svg PUBLIC "-//W3C//DTD SVG 20010904//EN"
 "http://www.w3.org/TR/2001/REC-SVG-20010904/DTD/svg10.dtd">
<svg version="1.0" xmlns="http://www.w3.org/2000/svg"
 width="97.000000pt" height="98.000000pt" viewBox="0 0 97.000000 98.000000"
 preserveAspectRatio="xMidYMid meet">

<g transform="translate(0.000000,98.000000) scale(0.100000,-0.100000)"
fill="#000000" stroke="none">
<path d="M7 975 c-9 -10 -9 -308 0 -688 l6 -287 371 0 371 0 51 55 51 55 -366
2 -366 3 0 370 0 370 418 3 417 2 0 55 0 55 -158 0 c-87 0 -300 3 -473 6 -173
4 -317 3 -322 -1z"/>
<path d="M540 780 l0 -60 210 0 210 0 0 60 0 60 -210 0 -210 0 0 -60z"/>
<path d="M340 630 l0 -60 210 0 210 0 0 60 0 60 -210 0 -210 0 0 -60z"/>
<path d="M550 480 l0 -60 168 0 c92 0 184 3 205 6 l37 7 0 53 0 54 -205 0
-205 0 0 -60z"/>
<path d="M340 340 l0 -60 100 0 100 0 0 60 0 60 -100 0 -100 0 0 -60z"/>
<path d="M760 340 l0 -60 94 0 94 0 7 50 c4 27 4 54 0 60 -3 6 -46 10 -101 10
l-94 0 0 -60z"/>
<path d="M340 190 l0 -60 261 0 c143 0 258 4 255 8 -3 5 17 28 44 51 28 24 50
47 50 52 0 5 -136 9 -305 9 l-305 0 0 -60z"/>
</g>
</svg>
